<?xml version="1.0" standalone="no"?>
<!DOCTYPE svg PUBLIC "-//W3C//DTD SVG 20010904//EN"
 "http://www.w3.org/TR/2001/REC-SVG-20010904/DTD/svg10.dtd">
<svg version="1.0" xmlns="http://www.w3.org/2000/svg"
 width="3000.000000pt" height="1941.000000pt" viewBox="0 0 3000.000000 1941.000000"
 preserveAspectRatio="xMidYMid meet">
<metadata>
Created by potrace 1.16, written by Peter Selinger 2001-2019
</metadata>
<g transform="translate(0.000000,1941.000000) scale(0.100000,-0.100000)"
fill="#000000" stroke="none">
<path d="M0 9705 l0 -9705 15000 0 15000 0 0 9705 0 9705 -15000 0 -15000 0 0
-9705z m15522 9045 c156 -48 261 -168 290 -330 28 -162 -65 -335 -225 -415
-38 -19 -76 -35 -83 -35 -12 0 -14 -196 -14 -1225 l0 -1226 183 95 c100 52
310 160 466 240 157 81 306 163 332 182 68 49 139 131 176 201 60 112 63 138
63 558 l0 380 -45 18 c-104 43 -175 153 -175 272 0 91 29 154 99 217 62 56
122 78 215 78 211 0 356 -199 289 -396 -20 -59 -110 -155 -166 -175 l-37 -13
0 -368 c0 -397 -6 -459 -55 -581 -56 -137 -188 -287 -322 -365 -37 -22 -282
-151 -543 -286 l-475 -245 -7 -1913 c-4 -1052 -7 -2787 -5 -3855 l2 -1943 271
148 c148 81 507 275 797 432 289 157 526 287 526 290 1 3 -171 97 -380 210
-420 226 -449 247 -503 360 l-31 65 -3 312 -3 312 -33 11 c-45 15 -113 74
-135 119 -58 114 -17 251 94 317 67 39 162 45 233 14 62 -27 127 -95 142 -149
36 -129 -32 -261 -156 -301 l-34 -12 0 -287 c0 -328 4 -351 73 -426 40 -43
150 -106 744 -426 46 -24 83 -50 83 -57 0 -8 4 -12 8 -10 35 14 1622 882 1622
887 -1 6 -628 339 -1126 597 -139 72 -279 151 -310 175 -68 52 -134 132 -172
209 l-27 55 -5 773 -5 773 -330 175 c-181 97 -382 202 -445 234 -131 66 -198
120 -240 194 l-30 51 0 757 0 756 -36 12 c-47 16 -110 73 -136 123 -25 51 -27
141 -3 188 21 42 72 96 106 115 144 75 325 -6 360 -161 24 -107 -42 -223 -149
-261 l-49 -18 -7 -733 -7 -734 21 -44 c27 -56 83 -106 162 -146 35 -17 223
-116 419 -220 196 -104 360 -189 363 -189 3 0 5 653 4 1451 l-3 1450 -52 18
c-74 25 -136 80 -172 153 -119 237 118 495 377 412 71 -23 140 -79 176 -144
28 -50 31 -63 31 -140 0 -76 -3 -91 -30 -139 -34 -61 -107 -125 -164 -142
l-38 -11 -6 -367 c-12 -639 -8 -3471 4 -3471 6 0 176 87 377 194 202 106 399
210 437 229 81 42 123 76 159 131 l26 39 0 793 0 793 -42 12 c-155 41 -225
211 -142 345 78 127 257 151 371 51 127 -112 92 -321 -65 -386 l-32 -13 0
-801 0 -801 -22 -45 c-43 -89 -106 -137 -328 -253 -113 -59 -326 -171 -475
-250 l-270 -143 -3 -285 -2 -284 26 -56 c42 -86 150 -186 259 -240 50 -24 153
-77 230 -118 77 -41 364 -193 638 -338 l499 -264 106 57 c214 114 328 199 391
294 l41 61 0 2842 0 2843 -51 24 c-65 30 -125 88 -152 147 -32 71 -30 180 5
248 121 232 462 225 569 -11 28 -60 26 -176 -5 -240 -28 -61 -95 -124 -159
-151 l-47 -19 0 -838 c0 -461 4 -837 8 -835 5 2 163 86 352 188 377 203 423
236 453 325 14 41 17 94 17 336 l0 288 -47 21 c-63 28 -100 64 -129 125 -76
161 46 340 230 338 82 -1 137 -25 190 -84 115 -127 71 -309 -91 -381 l-42 -18
-3 -313 -3 -312 -33 -67 c-54 -110 -95 -139 -521 -368 l-381 -205 0 -1489 c0
-1186 3 -1487 13 -1483 68 26 840 445 865 470 19 17 42 49 53 69 18 36 19 68
19 775 l0 738 -51 18 c-162 58 -212 263 -93 381 153 151 418 49 417 -162 0
-95 -66 -188 -154 -217 l-34 -12 -5 -764 -5 -764 -27 -47 c-42 -71 -104 -118
-265 -200 -81 -42 -278 -146 -438 -230 l-290 -154 -5 -419 -5 -420 -29 -60
c-37 -75 -162 -202 -266 -272 -42 -28 -125 -77 -185 -110 -61 -32 -729 -395
-1485 -806 l-1375 -748 3 -2072 c4 -1993 4 -2073 22 -2102 35 -56 75 -83 295
-195 518 -264 624 -321 666 -359 25 -21 58 -65 74 -97 l30 -59 3 -291 3 -291
37 -11 c87 -27 152 -116 152 -210 0 -119 -80 -209 -202 -227 -60 -9 -141 14
-190 55 -121 100 -97 300 46 370 l44 21 7 132 c4 73 5 200 4 282 -4 142 -5
152 -31 196 -15 26 -41 58 -57 72 -29 24 -289 161 -671 352 -96 49 -187 96
-201 106 l-26 18 -6 -346 c-4 -190 -7 -500 -7 -687 l0 -341 45 -18 c147 -61
214 -243 142 -389 -88 -179 -332 -221 -484 -85 -63 57 -88 117 -88 212 0 70 4
87 30 134 35 63 81 103 152 133 l52 21 -2 2794 c-1 1536 -3 2793 -4 2793 -1 0
-140 -75 -309 -167 l-307 -167 7 -1830 c3 -1007 9 -2412 12 -3123 l7 -1291 38
-18 c47 -21 122 -99 142 -146 40 -95 29 -194 -31 -280 -30 -42 -52 -61 -106
-88 -62 -31 -77 -35 -145 -34 -118 0 -210 52 -268 151 -35 60 -43 159 -18 234
21 63 90 136 154 165 l44 19 -6 1994 c-4 1097 -7 2296 -7 2665 l0 671 -296
163 c-163 89 -298 161 -301 159 -3 -4 -22 -3522 -23 -4358 l0 -315 48 -22
c140 -63 209 -205 168 -345 -24 -82 -69 -136 -150 -177 -61 -31 -77 -35 -145
-35 -63 0 -86 5 -133 28 -222 109 -224 414 -4 522 l53 26 6 102 c4 56 7 347 7
646 0 299 3 561 6 582 7 44 3 46 -34 21 -15 -10 -211 -108 -437 -218 -443
-215 -476 -236 -508 -325 -14 -36 -17 -93 -19 -311 l-3 -266 37 -17 c57 -25
115 -97 129 -159 33 -150 -98 -289 -256 -273 -135 14 -221 112 -213 244 6 94
62 166 154 198 l39 13 5 279 c7 332 10 345 104 438 58 57 84 71 481 264 415
202 465 231 506 297 19 31 19 64 17 1645 l-3 1614 -1062 585 c-585 322 -1091
605 -1125 630 -78 58 -149 144 -199 245 -67 135 -69 156 -69 725 l0 505 -658
346 c-361 191 -691 364 -732 385 -91 47 -230 180 -275 264 l-30 55 -5 780 -5
780 -80 43 c-44 24 -249 132 -455 240 -409 215 -448 242 -495 344 l-25 53 0
745 0 746 -36 13 c-112 41 -178 175 -140 288 19 57 82 124 138 148 56 23 143
19 203 -9 88 -40 135 -114 135 -211 0 -104 -61 -187 -162 -221 l-48 -16 0
-734 c0 -704 1 -736 19 -772 30 -60 97 -113 216 -174 61 -30 247 -128 414
-217 167 -88 307 -161 312 -161 5 0 8 189 7 446 l-3 445 -55 19 c-99 33 -170
130 -170 231 0 159 166 281 322 235 79 -23 131 -64 163 -130 56 -115 16 -248
-92 -311 l-52 -30 -1 -923 0 -924 113 60 c61 33 261 138 442 234 182 95 345
185 363 198 18 14 46 45 63 69 l29 44 0 772 0 772 -41 12 c-51 15 -117 74
-140 126 -24 52 -24 138 0 190 22 50 86 108 137 126 137 46 289 -31 325 -165
30 -112 -43 -245 -153 -278 l-38 -11 0 -776 c0 -889 7 -816 -97 -919 -45 -45
-91 -74 -208 -134 -82 -42 -294 -153 -470 -246 l-320 -170 -3 -287 -2 -287 30
-57 c55 -103 139 -175 290 -251 92 -46 1105 -580 1208 -637 l62 -34 0 869 0
869 -39 12 c-54 16 -139 95 -167 156 -33 70 -33 170 0 241 68 145 237 214 396
160 80 -28 163 -113 186 -191 43 -149 -30 -304 -172 -362 l-44 -18 0 -1313 0
-1312 43 21 c23 12 193 102 377 199 184 98 377 199 429 225 106 53 194 128
222 190 17 36 19 70 19 336 0 163 -3 546 -7 852 l-6 556 -28 6 c-50 11 -105
60 -134 119 -91 186 86 383 292 325 90 -25 173 -132 173 -224 0 -85 -65 -177
-150 -214 l-50 -22 0 -610 c0 -574 1 -611 17 -605 44 17 542 291 573 315 19
15 45 47 57 71 22 42 23 52 23 291 l0 249 -32 14 c-63 27 -117 104 -118 169 0
66 48 137 115 168 124 57 275 -34 275 -167 0 -73 -43 -139 -110 -169 l-39 -18
-3 -266 c-4 -378 17 -349 -442 -596 l-316 -170 0 -198 c0 -195 0 -199 -27
-254 -35 -70 -115 -151 -190 -190 -32 -16 -262 -137 -510 -268 l-453 -238 0
-77 c0 -157 76 -311 203 -409 29 -22 249 -148 491 -281 375 -207 442 -241 461
-232 12 5 210 112 441 236 468 253 500 276 542 389 21 55 22 73 22 411 l0 354
-27 5 c-79 16 -170 110 -194 202 -24 87 16 213 84 271 75 63 192 90 283 65
140 -38 234 -186 204 -323 -21 -98 -106 -192 -192 -213 l-28 -7 0 -357 c0
-203 -5 -375 -11 -400 -17 -74 -61 -153 -119 -211 -47 -47 -110 -85 -420 -252
-201 -108 -389 -210 -418 -226 l-53 -29 618 -341 c340 -187 741 -408 891 -491
151 -83 275 -151 278 -151 2 0 4 1025 4 2278 l0 2277 -247 130 c-413 217 -473
249 -608 320 -71 37 -278 147 -460 243 -181 96 -388 204 -460 240 -162 81
-232 128 -315 211 -80 80 -137 165 -167 249 l-23 63 0 927 0 927 -332 175
c-182 96 -358 188 -392 204 -71 35 -149 109 -176 169 -19 40 -20 72 -20 687
l0 646 -42 11 c-100 27 -169 106 -176 202 -2 32 1 76 8 96 16 48 72 110 124
138 57 30 165 30 222 0 115 -61 165 -204 110 -312 -23 -43 -83 -99 -122 -113
l-34 -12 0 -649 c0 -705 -3 -673 57 -729 21 -21 754 -418 770 -418 2 0 3 294
3 653 l0 652 -48 17 c-99 35 -178 118 -203 213 -26 94 14 220 90 287 161 141
409 93 501 -97 33 -70 33 -170 0 -240 -31 -63 -96 -127 -155 -151 l-45 -19 0
-1207 c0 -665 3 -1208 6 -1208 4 0 176 89 383 199 207 109 421 222 476 250
118 60 167 98 206 160 l29 45 -1 860 0 861 -58 28 c-153 72 -182 256 -59 374
18 18 50 39 70 47 48 20 148 20 196 0 71 -29 132 -107 147 -186 18 -93 -62
-221 -154 -249 l-41 -12 0 -861 0 -861 -25 -53 c-14 -30 -50 -78 -82 -110 -52
-51 -113 -86 -573 -329 l-515 -271 -3 -372 -2 -372 31 -64 c59 -120 194 -244
344 -315 62 -30 805 -420 960 -504 33 -17 121 -64 195 -103 74 -39 241 -127
370 -196 l235 -124 3 1206 c2 664 0 1766 -4 2449 l-6 1242 -432 259 c-237 143
-454 271 -482 285 -185 93 -376 263 -440 393 l-39 78 -3 337 -3 338 -53 24
c-238 109 -240 430 -3 554 45 24 63 28 142 28 71 0 100 -5 136 -21 64 -30 125
-88 157 -148 23 -44 27 -63 27 -136 0 -73 -4 -92 -27 -136 -31 -60 -94 -119
-154 -146 l-44 -19 0 -320 c0 -295 1 -323 19 -357 54 -105 156 -197 329 -298
197 -115 363 -215 615 -367 l257 -157 -2 726 -3 726 -55 19 c-114 40 -196 115
-248 226 -24 51 -27 70 -27 158 0 88 3 107 27 158 51 109 173 210 286 236 66
16 166 12 234 -9z m10540 -17677 c135 -134 163 -171 154 -207 -3 -11 -70 -85
-149 -164 -103 -102 -150 -142 -167 -142 -17 0 -65 42 -172 147 -125 125 -148
152 -148 177 0 26 22 53 143 173 186 187 167 186 339 16z m2446 -127 c1 -100
7 -175 13 -182 6 -7 29 -14 52 -16 37 -3 42 -6 45 -30 3 -22 -2 -29 -23 -34
-42 -10 -97 3 -124 31 -26 25 -26 28 -29 201 -3 186 1 208 42 202 20 -3 21 -9
24 -172z m517 115 c22 -10 46 -26 54 -35 12 -15 12 -19 -2 -34 -16 -15 -20
-15 -62 6 -50 24 -91 28 -129 11 -60 -28 -33 -69 56 -88 89 -20 137 -46 153
-86 13 -30 13 -40 1 -68 -28 -67 -126 -100 -217 -73 -67 19 -113 54 -104 79 9
23 29 22 83 -4 74 -36 163 -24 178 24 8 25 -15 44 -71 57 -94 24 -116 32 -145
56 -56 48 -31 130 50 163 40 16 112 12 155 -8z m-2583 -8 c27 -33 161 -332
154 -348 -8 -23 -35 -30 -51 -14 -10 11 -165 334 -165 345 0 6 32 34 39 34 4
0 15 -8 23 -17z m308 -13 c0 -8 -108 -251 -115 -258 -2 -2 -12 13 -23 34 l-19
38 44 96 c48 105 65 125 94 109 11 -5 19 -14 19 -19z m397 19 c58 -22 122
-108 123 -166 0 -35 -30 -43 -164 -43 -69 0 -126 -2 -126 -5 0 -20 35 -67 60
-80 48 -25 85 -19 129 20 44 40 56 43 71 14 10 -17 6 -26 -27 -58 -21 -22 -57
-44 -79 -51 -90 -27 -189 38 -214 139 -34 144 99 279 227 230z m467 -169 c75
-93 136 -176 136 -184 0 -8 -8 -20 -19 -25 -23 -13 -36 -3 -99 76 l-50 63 -56
-70 c-59 -72 -74 -81 -96 -55 -17 20 -6 41 59 120 l49 60 -59 74 c-32 40 -59
79 -59 87 0 16 29 34 46 27 7 -2 73 -80 148 -173z m553 161 c48 -22 91 -80
100 -135 10 -61 -1 -66 -153 -66 -74 0 -134 -3 -134 -7 0 -17 40 -67 62 -79
43 -25 85 -17 129 23 32 29 44 35 57 27 27 -17 25 -31 -12 -72 -110 -122 -296
-39 -296 132 0 88 37 148 110 180 47 20 87 19 137 -3z m-4359 -133 c3 -115 2
-116 -20 -116 -13 0 -35 -3 -50 -7 -40 -11 -68 23 -68 82 0 59 28 93 77 93 31
0 33 2 33 36 0 24 4 34 13 32 8 -3 13 -39 15 -120z m1110 0 c3 -115 2 -116
-20 -116 -13 0 -35 -3 -50 -7 -40 -11 -68 23 -68 82 0 59 28 93 77 93 31 0 33
2 33 36 0 24 4 34 13 32 8 -3 13 -39 15 -120z m170 81 c3 -33 5 -35 35 -31 44
5 67 -16 74 -66 9 -70 -42 -121 -109 -107 l-28 7 0 120 c0 91 3 119 13 116 6
-3 13 -20 15 -39z m-1114 -51 c9 -12 16 -33 16 -45 0 -21 -4 -23 -55 -23 -59
0 -70 -13 -38 -45 11 -12 25 -15 50 -10 37 7 45 -8 14 -25 -30 -15 -56 -12
-85 11 -22 17 -26 28 -26 70 0 61 24 89 74 89 25 0 39 -7 50 -22z m400 16 c13
-5 16 -23 16 -98 0 -118 -11 -136 -81 -136 -36 0 -49 4 -46 13 2 6 20 12 41
12 22 0 41 6 46 15 16 26 11 31 -24 25 -27 -6 -39 -2 -55 14 -29 29 -30 112
-1 141 20 20 71 27 104 14z m360 -16 c9 -12 16 -33 16 -45 0 -21 -4 -23 -55
-23 -59 0 -70 -13 -38 -45 11 -12 26 -15 50 -12 36 6 44 -6 14 -23 -56 -30
-111 12 -111 85 0 56 25 85 74 85 25 0 39 -7 50 -22z"/>
<path d="M15335 18611 c-154 -42 -236 -179 -193 -323 15 -50 78 -122 132 -151
61 -32 174 -31 239 3 92 47 140 125 140 226 -1 101 -60 189 -156 229 -44 18
-124 26 -162 16z"/>
<path d="M13903 18485 c-32 -16 -61 -41 -79 -67 -25 -35 -29 -51 -29 -108 0
-57 4 -73 29 -108 33 -48 112 -92 164 -92 98 0 192 69 210 154 15 72 -2 130
-53 182 -69 68 -155 82 -242 39z"/>
<path d="M16715 17633 c-48 -25 -83 -63 -101 -110 -20 -52 -14 -99 20 -158 68
-115 257 -114 333 2 57 86 16 220 -81 264 -50 23 -130 24 -171 2z"/>
<path d="M12074 16830 c-54 -27 -88 -87 -81 -141 10 -76 86 -144 133 -119 13
7 38 10 56 7 91 -14 146 127 83 210 -48 62 -119 78 -191 43z"/>
<path d="M13005 16453 c-68 -36 -105 -95 -105 -168 0 -114 86 -191 206 -183
153 10 234 162 151 287 -48 72 -175 105 -252 64z"/>
<path d="M14270 16323 c-47 -18 -90 -83 -90 -133 0 -82 62 -140 149 -140 99 0
157 59 149 152 -4 41 -12 57 -41 86 -32 32 -43 36 -94 39 -32 1 -65 0 -73 -4z"/>
<path d="M19495 16061 c-97 -24 -165 -127 -144 -219 26 -116 162 -185 272
-138 39 17 92 71 106 109 38 101 -24 216 -134 246 -44 12 -56 12 -100 2z"/>
<path d="M17140 15487 c-48 -16 -107 -77 -120 -128 -51 -187 191 -318 330
-179 143 143 -12 370 -210 307z"/>
<path d="M20445 15411 c-93 -42 -108 -149 -31 -220 36 -34 118 -40 163 -12 93
59 87 183 -12 231 -51 25 -69 25 -120 1z"/>
<path d="M9319 14789 c-46 -27 -69 -66 -69 -119 0 -86 58 -144 146 -145 59 0
94 20 132 75 26 40 28 83 4 130 -38 76 -136 103 -213 59z"/>
<path d="M16125 14551 c-127 -31 -157 -195 -47 -263 101 -62 232 7 232 122 0
94 -91 164 -185 141z"/>
<path d="M11517 13945 c-106 -37 -138 -148 -66 -230 90 -103 259 -41 259 95 0
102 -96 169 -193 135z"/>
<path d="M18231 13723 c-130 -68 -92 -254 55 -271 55 -6 95 11 134 54 41 47
47 93 21 146 -12 24 -33 52 -48 62 -38 28 -119 32 -162 9z"/>
<path d="M10329 13601 c-35 -35 -39 -44 -39 -90 0 -44 5 -56 33 -87 95 -104
273 -19 240 114 -15 66 -66 102 -142 102 -49 0 -57 -3 -92 -39z"/>
<path d="M20526 13227 c-73 -41 -97 -132 -53 -197 71 -107 227 -93 272 23 49
129 -96 245 -219 174z"/>
<path d="M12075 11966 c-85 -53 -116 -153 -73 -235 37 -71 86 -104 162 -109
78 -5 133 20 176 80 26 35 30 50 30 102 0 71 -19 109 -76 152 -31 24 -48 29
-108 32 -61 3 -76 0 -111 -22z"/>
<path d="M13322 11623 c-90 -44 -108 -157 -36 -228 33 -33 38 -35 106 -35 68
0 71 1 109 39 36 36 39 43 39 94 0 45 -5 61 -26 87 -51 60 -125 77 -192 43z"/>
<path d="M14072 11236 c-32 -30 -37 -40 -37 -78 0 -55 25 -95 72 -115 74 -31
159 16 170 93 10 78 -43 134 -127 134 -32 0 -48 -7 -78 -34z"/>
<path d="M16139 10097 c-68 -46 -81 -132 -29 -191 55 -62 131 -70 197 -20 67
50 68 139 3 198 -34 31 -47 36 -89 36 -33 0 -58 -7 -82 -23z"/>
<path d="M14398 9600 c-204 -108 -39 -400 169 -299 57 28 86 69 91 134 6 71
-18 119 -77 156 -55 35 -126 39 -183 9z"/>
<path d="M13415 2321 c-52 -31 -68 -58 -73 -115 -4 -52 -3 -56 35 -97 37 -39
45 -43 99 -47 76 -5 119 22 148 90 19 45 19 48 2 93 -33 85 -136 123 -211 76z"/>
<path d="M17293 2329 c-98 -20 -146 -126 -97 -210 75 -127 278 -75 278 71 0
94 -86 160 -181 139z"/>
<path d="M16083 2095 c-32 -16 -61 -41 -79 -67 -25 -36 -29 -50 -29 -114 0
-64 3 -77 30 -115 62 -89 184 -118 281 -68 120 62 153 215 66 311 -72 80 -174
100 -269 53z"/>
<path d="M14542 2100 c-76 -31 -134 -114 -134 -193 0 -224 318 -287 413 -82
47 101 -5 224 -113 269 -41 17 -130 20 -166 6z"/>
<path d="M15315 1112 c-175 -96 -128 -347 73 -385 46 -9 120 9 164 40 46 31
88 112 88 167 -1 158 -182 257 -325 178z"/>
<path d="M25758 1013 c-65 -65 -118 -125 -118 -133 0 -20 241 -260 260 -260
20 0 260 241 260 260 0 9 -54 69 -120 135 l-120 120 0 -92 c0 -85 2 -94 25
-117 29 -29 32 -56 8 -84 -30 -35 -68 -38 -97 -8 -33 32 -33 63 -1 96 24 25
26 32 23 114 l-3 86 -117 -117z"/>
</g>
</svg>
